<mxfile host="app.diagrams.net" modified="2021-03-20T20:08:21.767Z" agent="5.0 (Windows NT 10.0; Win64; x64) AppleWebKit/537.36 (KHTML, like Gecko) Chrome/89.0.4389.90 Safari/537.36" etag="DwQ3wD5mlspgCGykBGsl" version="14.4.8" type="github">
  <diagram id="w3-QReaRDk8Zfa-0KLuc" name="Page-1">
    <mxGraphModel dx="981" dy="526" grid="1" gridSize="10" guides="1" tooltips="1" connect="1" arrows="1" fold="1" page="1" pageScale="1" pageWidth="827" pageHeight="1169" math="0" shadow="0">
      <root>
        <mxCell id="0" />
        <mxCell id="1" parent="0" />
        <mxCell id="aD-EjDodzpd9pSaTOs2d-1" value="" style="html=1;fillColor=#f5f5f5;strokeColor=#666666;fontColor=#333333;align=center;" vertex="1" parent="1">
          <mxGeometry x="168" y="40" width="720" height="890" as="geometry" />
        </mxCell>
        <mxCell id="aD-EjDodzpd9pSaTOs2d-2" value="&lt;font color=&quot;#b85450&quot;&gt;Comprador&lt;/font&gt;" style="shape=umlActor;verticalLabelPosition=bottom;verticalAlign=top;html=1;strokeColor=#b85450;fillColor=#f8cecc;" vertex="1" parent="1">
          <mxGeometry x="70" y="190" width="30" height="60" as="geometry" />
        </mxCell>
        <mxCell id="aD-EjDodzpd9pSaTOs2d-3" value="&lt;font style=&quot;font-size: 12px ; font-weight: normal&quot;&gt;Sistema Marketplace&lt;/font&gt;" style="text;strokeColor=none;fillColor=none;html=1;fontSize=24;fontStyle=1;verticalAlign=middle;align=center;" vertex="1" parent="1">
          <mxGeometry x="478" y="30" width="100" height="40" as="geometry" />
        </mxCell>
        <mxCell id="aD-EjDodzpd9pSaTOs2d-6" value="&lt;font style=&quot;font-size: 10px;&quot;&gt;Procurar jogos no catálogo&lt;/font&gt;" style="ellipse;whiteSpace=wrap;html=1;fillColor=none;fontSize=10;spacing=2;" vertex="1" parent="1">
          <mxGeometry x="220" y="90" width="119" height="50" as="geometry" />
        </mxCell>
        <mxCell id="aD-EjDodzpd9pSaTOs2d-7" value="" style="endArrow=none;html=1;entryX=0;entryY=0.5;entryDx=0;entryDy=0;" edge="1" parent="1" target="aD-EjDodzpd9pSaTOs2d-6">
          <mxGeometry width="50" height="50" relative="1" as="geometry">
            <mxPoint x="110" y="200" as="sourcePoint" />
            <mxPoint x="470" y="230" as="targetPoint" />
          </mxGeometry>
        </mxCell>
        <mxCell id="aD-EjDodzpd9pSaTOs2d-8" value="&lt;font style=&quot;font-size: 10px;&quot;&gt;Efetuar Login&lt;/font&gt;" style="ellipse;whiteSpace=wrap;html=1;fillColor=none;fontSize=10;spacing=2;" vertex="1" parent="1">
          <mxGeometry x="220" y="200" width="119" height="45" as="geometry" />
        </mxCell>
        <mxCell id="aD-EjDodzpd9pSaTOs2d-10" value="" style="endArrow=none;html=1;entryX=0;entryY=0.5;entryDx=0;entryDy=0;" edge="1" parent="1" target="aD-EjDodzpd9pSaTOs2d-8">
          <mxGeometry width="50" height="50" relative="1" as="geometry">
            <mxPoint x="110" y="220" as="sourcePoint" />
            <mxPoint x="200" y="210" as="targetPoint" />
          </mxGeometry>
        </mxCell>
        <mxCell id="aD-EjDodzpd9pSaTOs2d-12" value="Solicitar suporte" style="ellipse;whiteSpace=wrap;html=1;fillColor=none;fontSize=10;spacing=2;" vertex="1" parent="1">
          <mxGeometry x="220" y="310" width="119" height="50" as="geometry" />
        </mxCell>
        <mxCell id="aD-EjDodzpd9pSaTOs2d-13" value="" style="endArrow=none;html=1;entryX=0;entryY=0.5;entryDx=0;entryDy=0;" edge="1" parent="1" target="aD-EjDodzpd9pSaTOs2d-12">
          <mxGeometry width="50" height="50" relative="1" as="geometry">
            <mxPoint x="110" y="250" as="sourcePoint" />
            <mxPoint x="230" y="230" as="targetPoint" />
          </mxGeometry>
        </mxCell>
        <mxCell id="aD-EjDodzpd9pSaTOs2d-14" value="&lt;font style=&quot;font-size: 10px;&quot;&gt;Realizar cadastro&lt;/font&gt;" style="ellipse;whiteSpace=wrap;html=1;fillColor=none;fontSize=10;spacing=2;" vertex="1" parent="1">
          <mxGeometry x="478" y="200" width="119" height="45" as="geometry" />
        </mxCell>
        <mxCell id="aD-EjDodzpd9pSaTOs2d-16" value="&lt;font style=&quot;font-size: 10px&quot;&gt;&amp;lt;&amp;lt;extend&amp;gt;&amp;gt;&lt;/font&gt;" style="endArrow=block;endSize=9;endFill=0;html=1;exitX=0;exitY=0.5;exitDx=0;exitDy=0;entryX=1;entryY=0.5;entryDx=0;entryDy=0;" edge="1" parent="1" source="aD-EjDodzpd9pSaTOs2d-14" target="aD-EjDodzpd9pSaTOs2d-8">
          <mxGeometry width="160" relative="1" as="geometry">
            <mxPoint x="380" y="330" as="sourcePoint" />
            <mxPoint x="540" y="330" as="targetPoint" />
          </mxGeometry>
        </mxCell>
        <mxCell id="aD-EjDodzpd9pSaTOs2d-20" value="&lt;font style=&quot;font-size: 10px;&quot;&gt;Adicionar jogos ao carrinho&lt;/font&gt;" style="ellipse;whiteSpace=wrap;html=1;fillColor=none;fontSize=10;spacing=2;" vertex="1" parent="1">
          <mxGeometry x="478" y="90" width="119" height="50" as="geometry" />
        </mxCell>
        <mxCell id="aD-EjDodzpd9pSaTOs2d-21" value="&lt;font style=&quot;font-size: 10px;&quot;&gt;Finalizar compra&lt;/font&gt;" style="ellipse;whiteSpace=wrap;html=1;fillColor=none;fontSize=10;spacing=2;" vertex="1" parent="1">
          <mxGeometry x="750" y="90" width="119" height="50" as="geometry" />
        </mxCell>
        <mxCell id="aD-EjDodzpd9pSaTOs2d-22" value="&lt;font style=&quot;font-size: 10px&quot;&gt;&amp;lt;&amp;lt;extend&amp;gt;&amp;gt;&lt;/font&gt;" style="endArrow=block;endSize=9;endFill=0;html=1;exitX=0;exitY=0.5;exitDx=0;exitDy=0;entryX=1;entryY=0.5;entryDx=0;entryDy=0;" edge="1" parent="1" source="aD-EjDodzpd9pSaTOs2d-20" target="aD-EjDodzpd9pSaTOs2d-6">
          <mxGeometry width="160" relative="1" as="geometry">
            <mxPoint x="439.99999999999864" y="232.5" as="sourcePoint" />
            <mxPoint x="330" y="232.5" as="targetPoint" />
          </mxGeometry>
        </mxCell>
        <mxCell id="aD-EjDodzpd9pSaTOs2d-23" value="&lt;font style=&quot;font-size: 10px&quot;&gt;&amp;lt;&amp;lt;extend&amp;gt;&amp;gt;&lt;/font&gt;" style="endArrow=block;endSize=9;endFill=0;html=1;exitX=0;exitY=0.5;exitDx=0;exitDy=0;entryX=1;entryY=0.5;entryDx=0;entryDy=0;" edge="1" parent="1" source="aD-EjDodzpd9pSaTOs2d-21" target="aD-EjDodzpd9pSaTOs2d-20">
          <mxGeometry width="160" relative="1" as="geometry">
            <mxPoint x="529.9999999999993" y="114.71000000000001" as="sourcePoint" />
            <mxPoint x="639.9999999999975" y="114.71000000000001" as="targetPoint" />
          </mxGeometry>
        </mxCell>
        <mxCell id="aD-EjDodzpd9pSaTOs2d-25" value="&lt;font style=&quot;font-size: 10px&quot;&gt;&amp;lt;&amp;lt;include&amp;gt;&amp;gt;&lt;/font&gt;" style="endArrow=block;endSize=9;endFill=0;html=1;exitX=0;exitY=1;exitDx=0;exitDy=0;entryX=1;entryY=0;entryDx=0;entryDy=0;" edge="1" parent="1" source="aD-EjDodzpd9pSaTOs2d-21" target="aD-EjDodzpd9pSaTOs2d-8">
          <mxGeometry width="160" relative="1" as="geometry">
            <mxPoint x="439.99999999999864" y="232.5" as="sourcePoint" />
            <mxPoint x="330" y="232.5" as="targetPoint" />
          </mxGeometry>
        </mxCell>
        <mxCell id="aD-EjDodzpd9pSaTOs2d-26" value="&lt;font style=&quot;font-size: 10px&quot;&gt;&amp;lt;&amp;lt;include&amp;gt;&amp;gt;&lt;/font&gt;" style="endArrow=block;endSize=9;endFill=0;html=1;exitX=0.5;exitY=0;exitDx=0;exitDy=0;entryX=0.5;entryY=1;entryDx=0;entryDy=0;" edge="1" parent="1" source="aD-EjDodzpd9pSaTOs2d-12" target="aD-EjDodzpd9pSaTOs2d-8">
          <mxGeometry width="160" relative="1" as="geometry">
            <mxPoint x="700" y="150" as="sourcePoint" />
            <mxPoint x="280" y="210" as="targetPoint" />
          </mxGeometry>
        </mxCell>
        <mxCell id="aD-EjDodzpd9pSaTOs2d-27" value="&lt;font style=&quot;font-size: 9px;&quot;&gt;Solicitar cancelamento/reembolso&lt;/font&gt;" style="ellipse;whiteSpace=wrap;html=1;fillColor=none;fontSize=9;spacing=2;" vertex="1" parent="1">
          <mxGeometry x="483" y="310" width="119" height="50" as="geometry" />
        </mxCell>
        <mxCell id="aD-EjDodzpd9pSaTOs2d-28" value="&lt;font style=&quot;font-size: 10px&quot;&gt;&amp;lt;&amp;lt;extend&amp;gt;&amp;gt;&lt;/font&gt;" style="endArrow=block;endSize=9;endFill=0;html=1;exitX=0;exitY=0.5;exitDx=0;exitDy=0;entryX=1;entryY=0.5;entryDx=0;entryDy=0;" edge="1" parent="1" source="aD-EjDodzpd9pSaTOs2d-27" target="aD-EjDodzpd9pSaTOs2d-12">
          <mxGeometry x="-0.2639" width="160" relative="1" as="geometry">
            <mxPoint x="488" y="232.5" as="sourcePoint" />
            <mxPoint x="349" y="232.5" as="targetPoint" />
            <mxPoint as="offset" />
          </mxGeometry>
        </mxCell>
        <mxCell id="aD-EjDodzpd9pSaTOs2d-29" value="Adicionar método de pagamento" style="ellipse;whiteSpace=wrap;html=1;fillColor=none;fontSize=10;spacing=2;" vertex="1" parent="1">
          <mxGeometry x="750" y="195" width="119" height="50" as="geometry" />
        </mxCell>
        <mxCell id="aD-EjDodzpd9pSaTOs2d-31" value="&lt;font style=&quot;font-size: 10px&quot;&gt;&amp;lt;&amp;lt;include&amp;gt;&amp;gt;&lt;/font&gt;" style="endArrow=block;endSize=9;endFill=0;html=1;exitX=0;exitY=0.5;exitDx=0;exitDy=0;entryX=1;entryY=0.5;entryDx=0;entryDy=0;" edge="1" parent="1" source="aD-EjDodzpd9pSaTOs2d-29" target="aD-EjDodzpd9pSaTOs2d-14">
          <mxGeometry width="160" relative="1" as="geometry">
            <mxPoint x="542.1600000000002" y="430.0000000000001" as="sourcePoint" />
            <mxPoint x="542.1600000000002" y="365" as="targetPoint" />
          </mxGeometry>
        </mxCell>
        <mxCell id="aD-EjDodzpd9pSaTOs2d-32" value="&lt;font style=&quot;font-size: 10px&quot;&gt;&amp;lt;&amp;lt;extend&amp;gt;&amp;gt;&lt;/font&gt;" style="endArrow=block;endSize=9;endFill=0;html=1;entryX=0.5;entryY=0;entryDx=0;entryDy=0;" edge="1" parent="1" target="aD-EjDodzpd9pSaTOs2d-29">
          <mxGeometry width="160" relative="1" as="geometry">
            <mxPoint x="810" y="140" as="sourcePoint" />
            <mxPoint x="606.9999999999998" y="125" as="targetPoint" />
          </mxGeometry>
        </mxCell>
        <mxCell id="aD-EjDodzpd9pSaTOs2d-33" value="&lt;font&gt;Vendedor&lt;/font&gt;" style="shape=umlActor;verticalLabelPosition=bottom;verticalAlign=top;html=1;fillColor=#f8cecc;strokeColor=#b85450;fontColor=#B85450;" vertex="1" parent="1">
          <mxGeometry x="70" y="640" width="30" height="60" as="geometry" />
        </mxCell>
        <mxCell id="aD-EjDodzpd9pSaTOs2d-36" value="&lt;font style=&quot;font-size: 10px;&quot;&gt;Efetuar Login&lt;/font&gt;" style="ellipse;whiteSpace=wrap;html=1;fillColor=none;fontSize=10;spacing=2;" vertex="1" parent="1">
          <mxGeometry x="220" y="655" width="119" height="45" as="geometry" />
        </mxCell>
        <mxCell id="aD-EjDodzpd9pSaTOs2d-37" value="Solicitar suporte" style="ellipse;whiteSpace=wrap;html=1;fillColor=none;fontSize=10;spacing=2;" vertex="1" parent="1">
          <mxGeometry x="220" y="760" width="119" height="50" as="geometry" />
        </mxCell>
        <mxCell id="aD-EjDodzpd9pSaTOs2d-38" value="&lt;font style=&quot;font-size: 10px&quot;&gt;&amp;lt;&amp;lt;include&amp;gt;&amp;gt;&lt;/font&gt;" style="endArrow=block;endSize=9;endFill=0;html=1;exitX=0.5;exitY=0;exitDx=0;exitDy=0;entryX=0.5;entryY=1;entryDx=0;entryDy=0;" edge="1" parent="1" source="aD-EjDodzpd9pSaTOs2d-37" target="aD-EjDodzpd9pSaTOs2d-36">
          <mxGeometry width="160" relative="1" as="geometry">
            <mxPoint x="700" y="600" as="sourcePoint" />
            <mxPoint x="280" y="695" as="targetPoint" />
          </mxGeometry>
        </mxCell>
        <mxCell id="aD-EjDodzpd9pSaTOs2d-39" value="" style="endArrow=none;html=1;entryX=0;entryY=0.5;entryDx=0;entryDy=0;" edge="1" parent="1">
          <mxGeometry width="50" height="50" relative="1" as="geometry">
            <mxPoint x="110" y="700" as="sourcePoint" />
            <mxPoint x="220" y="785" as="targetPoint" />
          </mxGeometry>
        </mxCell>
        <mxCell id="aD-EjDodzpd9pSaTOs2d-40" value="" style="endArrow=none;html=1;entryX=0;entryY=0.5;entryDx=0;entryDy=0;" edge="1" parent="1" target="aD-EjDodzpd9pSaTOs2d-36">
          <mxGeometry width="50" height="50" relative="1" as="geometry">
            <mxPoint x="120" y="678" as="sourcePoint" />
            <mxPoint x="230" y="795" as="targetPoint" />
          </mxGeometry>
        </mxCell>
        <mxCell id="aD-EjDodzpd9pSaTOs2d-43" value="&lt;font style=&quot;font-size: 10px&quot;&gt;Adicionar anúncio ao marketplace&lt;/font&gt;" style="ellipse;whiteSpace=wrap;html=1;fillColor=none;fontSize=10;spacing=2;" vertex="1" parent="1">
          <mxGeometry x="220" y="530" width="119" height="45" as="geometry" />
        </mxCell>
        <mxCell id="aD-EjDodzpd9pSaTOs2d-47" value="" style="endArrow=none;html=1;entryX=0;entryY=0.5;entryDx=0;entryDy=0;" edge="1" parent="1" target="aD-EjDodzpd9pSaTOs2d-43">
          <mxGeometry width="50" height="50" relative="1" as="geometry">
            <mxPoint x="110" y="650.5" as="sourcePoint" />
            <mxPoint x="210.00000000000023" y="650" as="targetPoint" />
          </mxGeometry>
        </mxCell>
        <mxCell id="aD-EjDodzpd9pSaTOs2d-48" value="&lt;font style=&quot;font-size: 10px&quot;&gt;&amp;lt;&amp;lt;include&amp;gt;&amp;gt;&lt;/font&gt;" style="endArrow=block;endSize=9;endFill=0;html=1;exitX=0.5;exitY=1;exitDx=0;exitDy=0;entryX=0.5;entryY=0;entryDx=0;entryDy=0;" edge="1" parent="1" source="aD-EjDodzpd9pSaTOs2d-43" target="aD-EjDodzpd9pSaTOs2d-36">
          <mxGeometry width="160" relative="1" as="geometry">
            <mxPoint x="279.25" y="650" as="sourcePoint" />
            <mxPoint x="279.75" y="585" as="targetPoint" />
          </mxGeometry>
        </mxCell>
        <mxCell id="aD-EjDodzpd9pSaTOs2d-49" value="&lt;font style=&quot;font-size: 9px&quot;&gt;Verificar histórico de anúncios&lt;/font&gt;" style="ellipse;whiteSpace=wrap;html=1;fillColor=none;fontSize=9;spacing=2;" vertex="1" parent="1">
          <mxGeometry x="483" y="655" width="119" height="45" as="geometry" />
        </mxCell>
        <mxCell id="aD-EjDodzpd9pSaTOs2d-52" value="&lt;font style=&quot;font-size: 10px&quot;&gt;&amp;lt;&amp;lt;include&amp;gt;&amp;gt;&lt;/font&gt;" style="endArrow=block;endSize=9;endFill=0;html=1;exitX=0;exitY=0.5;exitDx=0;exitDy=0;entryX=1;entryY=0.5;entryDx=0;entryDy=0;" edge="1" parent="1" source="aD-EjDodzpd9pSaTOs2d-49" target="aD-EjDodzpd9pSaTOs2d-36">
          <mxGeometry width="160" relative="1" as="geometry">
            <mxPoint x="349" y="562.5" as="sourcePoint" />
            <mxPoint x="439.5" y="657.5" as="targetPoint" />
          </mxGeometry>
        </mxCell>
        <mxCell id="aD-EjDodzpd9pSaTOs2d-55" value="&lt;font style=&quot;font-size: 9px&quot;&gt;Verificar o saldo da conta&lt;/font&gt;" style="ellipse;whiteSpace=wrap;html=1;fillColor=none;fontSize=9;spacing=2;" vertex="1" parent="1">
          <mxGeometry x="483" y="530" width="119" height="45" as="geometry" />
        </mxCell>
        <mxCell id="aD-EjDodzpd9pSaTOs2d-56" value="&lt;font style=&quot;font-size: 10px&quot;&gt;&amp;lt;&amp;lt;include&amp;gt;&amp;gt;&lt;/font&gt;" style="endArrow=block;endSize=9;endFill=0;html=1;exitX=0;exitY=1;exitDx=0;exitDy=0;entryX=0.832;entryY=0.151;entryDx=0;entryDy=0;entryPerimeter=0;" edge="1" parent="1" source="aD-EjDodzpd9pSaTOs2d-55" target="aD-EjDodzpd9pSaTOs2d-36">
          <mxGeometry width="160" relative="1" as="geometry">
            <mxPoint x="492.9999999999993" y="687.5" as="sourcePoint" />
            <mxPoint x="348.9999999999998" y="687.5" as="targetPoint" />
          </mxGeometry>
        </mxCell>
        <mxCell id="aD-EjDodzpd9pSaTOs2d-57" value="Adicionar método de retirada" style="ellipse;whiteSpace=wrap;html=1;fillColor=none;fontSize=10;spacing=2;" vertex="1" parent="1">
          <mxGeometry x="750" y="530" width="119" height="45" as="geometry" />
        </mxCell>
        <mxCell id="aD-EjDodzpd9pSaTOs2d-58" value="&lt;font style=&quot;font-size: 10px&quot;&gt;&amp;lt;&amp;lt;extend&amp;gt;&amp;gt;&lt;/font&gt;" style="endArrow=block;endSize=9;endFill=0;html=1;exitX=0;exitY=0.5;exitDx=0;exitDy=0;entryX=1;entryY=0.5;entryDx=0;entryDy=0;" edge="1" parent="1" source="aD-EjDodzpd9pSaTOs2d-57" target="aD-EjDodzpd9pSaTOs2d-55">
          <mxGeometry width="160" relative="1" as="geometry">
            <mxPoint x="750.001479289944" y="550.003195266271" as="sourcePoint" />
            <mxPoint x="568.758" y="643.4549999999998" as="targetPoint" />
          </mxGeometry>
        </mxCell>
        <mxCell id="aD-EjDodzpd9pSaTOs2d-59" value="Retirar dinheiro" style="ellipse;whiteSpace=wrap;html=1;fillColor=none;fontSize=9;spacing=2;" vertex="1" parent="1">
          <mxGeometry x="750" y="762.5" width="119" height="45" as="geometry" />
        </mxCell>
        <mxCell id="aD-EjDodzpd9pSaTOs2d-60" value="&lt;font style=&quot;font-size: 10px&quot;&gt;&amp;lt;&amp;lt;extend&amp;gt;&amp;gt;&lt;/font&gt;" style="endArrow=block;endSize=9;endFill=0;html=1;exitX=0.5;exitY=0;exitDx=0;exitDy=0;entryX=0.5;entryY=1;entryDx=0;entryDy=0;" edge="1" parent="1" source="aD-EjDodzpd9pSaTOs2d-59" target="aD-EjDodzpd9pSaTOs2d-57">
          <mxGeometry width="160" relative="1" as="geometry">
            <mxPoint x="760.0000000000018" y="562.5" as="sourcePoint" />
            <mxPoint x="611.999999999998" y="562.5" as="targetPoint" />
          </mxGeometry>
        </mxCell>
        <mxCell id="aD-EjDodzpd9pSaTOs2d-62" value="&lt;font style=&quot;font-size: 10px&quot;&gt;&amp;lt;&amp;lt;extend&amp;gt;&amp;gt;&lt;/font&gt;" style="endArrow=block;endSize=9;endFill=0;html=1;exitX=0;exitY=0;exitDx=0;exitDy=0;entryX=0.5;entryY=1;entryDx=0;entryDy=0;" edge="1" parent="1" source="aD-EjDodzpd9pSaTOs2d-59" target="aD-EjDodzpd9pSaTOs2d-55">
          <mxGeometry width="160" relative="1" as="geometry">
            <mxPoint x="819.5" y="772.5" as="sourcePoint" />
            <mxPoint x="819.5" y="585" as="targetPoint" />
          </mxGeometry>
        </mxCell>
        <mxCell id="aD-EjDodzpd9pSaTOs2d-63" value="&lt;font style=&quot;font-size: 9px&quot;&gt;Retirar anúncio&lt;/font&gt;" style="ellipse;whiteSpace=wrap;html=1;fillColor=none;fontSize=9;spacing=2;" vertex="1" parent="1">
          <mxGeometry x="483" y="762.5" width="119" height="45" as="geometry" />
        </mxCell>
        <mxCell id="aD-EjDodzpd9pSaTOs2d-64" value="&lt;font style=&quot;font-size: 10px&quot;&gt;&amp;lt;&amp;lt;extend&amp;gt;&amp;gt;&lt;/font&gt;" style="endArrow=block;endSize=9;endFill=0;html=1;exitX=0.5;exitY=0;exitDx=0;exitDy=0;entryX=0.5;entryY=1;entryDx=0;entryDy=0;" edge="1" parent="1" source="aD-EjDodzpd9pSaTOs2d-63" target="aD-EjDodzpd9pSaTOs2d-49">
          <mxGeometry width="160" relative="1" as="geometry">
            <mxPoint x="777.251479289944" y="779.1568047337291" as="sourcePoint" />
            <mxPoint x="552.5" y="585" as="targetPoint" />
          </mxGeometry>
        </mxCell>
      </root>
    </mxGraphModel>
  </diagram>
</mxfile>
